<?xml version="1.0" standalone="no"?>
<!DOCTYPE svg PUBLIC "-//W3C//DTD SVG 20010904//EN"
 "http://www.w3.org/TR/2001/REC-SVG-20010904/DTD/svg10.dtd">
<svg version="1.0" xmlns="http://www.w3.org/2000/svg"
 width="1024.000000pt" height="1024.000000pt" viewBox="0 0 1024.000000 1024.000000"
 preserveAspectRatio="xMidYMid meet">
<metadata>
Created by potrace 1.11, written by Peter Selinger 2001-2013
</metadata>
<g transform="translate(0.000000,1024.000000) scale(0.100000,-0.100000)"
fill="#000000" stroke="none">
<path d="M4805 9370 c-1032 -91 -1936 -509 -2650 -1226 -663 -665 -1065 -1499
-1182 -2454 -25 -205 -25 -715 0 -920 113 -931 502 -1750 1142 -2409 302 -310
596 -536 977 -750 467 -262 970 -423 1553 -498 218 -28 760 -25 988 5 930 123
1740 512 2401 1152 493 479 854 1063 1064 1722 243 762 254 1606 31 2378 -276
953 -880 1771 -1714 2321 -312 205 -621 355 -980 474 -287 96 -551 154 -855
191 -158 18 -626 27 -775 14z m2691 -2431 c30 -107 64 -224 75 -262 20 -67 21
-68 429 -515 226 -246 409 -451 407 -455 -1 -4 -98 -81 -215 -171 l-212 -163
-328 74 c-180 40 -411 93 -513 116 l-187 42 -242 263 c-132 145 -240 267 -238
271 5 14 961 1002 965 998 2 -2 28 -91 59 -198z m-3646 -918 c3 -3 549 -6
1215 -6 l1209 0 183 -250 182 -250 1 -1077 0 -1078 -224 0 c-124 0 -227 3
-229 8 -3 4 -58 255 -122 557 -64 303 -119 558 -121 568 -5 16 -40 17 -557 17
l-552 0 -525 -246 c-289 -135 -535 -252 -547 -260 l-23 -14 0 -315 0 -315
-355 0 -355 0 2 983 3 982 28 65 c15 36 52 104 83 152 l55 87 -275 473 -276
474 7 110 6 111 591 -385 c325 -212 593 -388 596 -391z"/>
</g>
</svg>
